solid part1
   facet normal 1.000000e+00 0.000000e+00 0.000000e+00
      outer loop
         vertex 1.000000e+02 1.000000e+01 1.400000e+02
         vertex 1.000000e+02 0.000000e+00 1.500000e+02
         vertex 1.000000e+02 1.000000e+01 1.000001e+01
      endloop
   endfacet
   facet normal 1.000000e+00 0.000000e+00 0.000000e+00
      outer loop
         vertex 1.000000e+02 1.000000e+01 1.000001e+01
         vertex 1.000000e+02 0.000000e+00 1.500000e+02
         vertex 1.000000e+02 0.000000e+00 0.000000e+00
      endloop
   endfacet
   facet normal 1.000000e+00 -0.000000e+00 0.000000e+00
      outer loop
         vertex 1.000000e+02 1.000000e+01 1.000001e+01
         vertex 1.000000e+02 0.000000e+00 0.000000e+00
         vertex 1.000000e+02 1.900000e+02 1.000001e+01
      endloop
   endfacet
   facet normal 1.000000e+00 0.000000e+00 0.000000e+00
      outer loop
         vertex 1.000000e+02 1.900000e+02 1.000001e+01
         vertex 1.000000e+02 0.000000e+00 0.000000e+00
         vertex 1.000000e+02 2.000000e+02 0.000000e+00
      endloop
   endfacet
   facet normal 1.000000e+00 -0.000000e+00 0.000000e+00
      outer loop
         vertex 1.000000e+02 1.900000e+02 1.000001e+01
         vertex 1.000000e+02 2.000000e+02 0.000000e+00
         vertex 1.000000e+02 1.900000e+02 1.400000e+02
      endloop
   endfacet
   facet normal 1.000000e+00 -0.000000e+00 0.000000e+00
      outer loop
         vertex 1.000000e+02 1.900000e+02 1.400000e+02
         vertex 1.000000e+02 2.000000e+02 0.000000e+00
         vertex 1.000000e+02 2.000000e+02 1.500000e+02
      endloop
   endfacet
   facet normal 1.000000e+00 0.000000e+00 -0.000000e+00
      outer loop
         vertex 1.000000e+02 1.900000e+02 1.400000e+02
         vertex 1.000000e+02 2.000000e+02 1.500000e+02
         vertex 1.000000e+02 1.000000e+01 1.400000e+02
      endloop
   endfacet
   facet normal 1.000000e+00 0.000000e+00 -0.000000e+00
      outer loop
         vertex 1.000000e+02 1.000000e+01 1.400000e+02
         vertex 1.000000e+02 2.000000e+02 1.500000e+02
         vertex 1.000000e+02 0.000000e+00 1.500000e+02
      endloop
   endfacet
   facet normal -1.000000e+00 -0.000000e+00 -0.000000e+00
      outer loop
         vertex 0.000000e+00 1.900000e+02 1.000001e+01
         vertex 0.000000e+00 2.000000e+02 0.000000e+00
         vertex 0.000000e+00 1.000000e+01 1.000001e+01
      endloop
   endfacet
   facet normal -1.000000e+00 0.000000e+00 -0.000000e+00
      outer loop
         vertex 0.000000e+00 1.000000e+01 1.000001e+01
         vertex 0.000000e+00 2.000000e+02 0.000000e+00
         vertex 0.000000e+00 0.000000e+00 0.000000e+00
      endloop
   endfacet
   facet normal -1.000000e+00 -0.000000e+00 0.000000e+00
      outer loop
         vertex 0.000000e+00 1.000000e+01 1.000001e+01
         vertex 0.000000e+00 0.000000e+00 0.000000e+00
         vertex 0.000000e+00 1.000000e+01 1.400000e+02
      endloop
   endfacet
   facet normal -1.000000e+00 -0.000000e+00 0.000000e+00
      outer loop
         vertex 0.000000e+00 1.000000e+01 1.400000e+02
         vertex 0.000000e+00 0.000000e+00 0.000000e+00
         vertex 0.000000e+00 0.000000e+00 1.500000e+02
      endloop
   endfacet
   facet normal -1.000000e+00 0.000000e+00 0.000000e+00
      outer loop
         vertex 0.000000e+00 1.000000e+01 1.400000e+02
         vertex 0.000000e+00 0.000000e+00 1.500000e+02
         vertex 0.000000e+00 1.900000e+02 1.400000e+02
      endloop
   endfacet
   facet normal -1.000000e+00 0.000000e+00 0.000000e+00
      outer loop
         vertex 0.000000e+00 1.900000e+02 1.400000e+02
         vertex 0.000000e+00 0.000000e+00 1.500000e+02
         vertex 0.000000e+00 2.000000e+02 1.500000e+02
      endloop
   endfacet
   facet normal -1.000000e+00 0.000000e+00 0.000000e+00
      outer loop
         vertex 0.000000e+00 1.900000e+02 1.400000e+02
         vertex 0.000000e+00 2.000000e+02 1.500000e+02
         vertex 0.000000e+00 1.900000e+02 1.000001e+01
      endloop
   endfacet
   facet normal -1.000000e+00 0.000000e+00 0.000000e+00
      outer loop
         vertex 0.000000e+00 1.900000e+02 1.000001e+01
         vertex 0.000000e+00 2.000000e+02 1.500000e+02
         vertex 0.000000e+00 2.000000e+02 0.000000e+00
      endloop
   endfacet
   facet normal 0.000000e+00 -0.000000e+00 1.000000e+00
      outer loop
         vertex 1.000000e+02 0.000000e+00 1.500000e+02
         vertex 1.000000e+02 2.000000e+02 1.500000e+02
         vertex 0.000000e+00 0.000000e+00 1.500000e+02
      endloop
   endfacet
   facet normal 0.000000e+00 0.000000e+00 1.000000e+00
      outer loop
         vertex 0.000000e+00 0.000000e+00 1.500000e+02
         vertex 1.000000e+02 2.000000e+02 1.500000e+02
         vertex 0.000000e+00 2.000000e+02 1.500000e+02
      endloop
   endfacet
   facet normal 0.000000e+00 -1.000000e+00 0.000000e+00
      outer loop
         vertex 1.000000e+02 0.000000e+00 0.000000e+00
         vertex 1.000000e+02 0.000000e+00 1.500000e+02
         vertex 0.000000e+00 0.000000e+00 0.000000e+00
      endloop
   endfacet
   facet normal 0.000000e+00 -1.000000e+00 0.000000e+00
      outer loop
         vertex 0.000000e+00 0.000000e+00 0.000000e+00
         vertex 1.000000e+02 0.000000e+00 1.500000e+02
         vertex 0.000000e+00 0.000000e+00 1.500000e+02
      endloop
   endfacet
   facet normal -0.000000e+00 -0.000000e+00 -1.000000e+00
      outer loop
         vertex 1.000000e+02 2.000000e+02 0.000000e+00
         vertex 1.000000e+02 0.000000e+00 0.000000e+00
         vertex 0.000000e+00 2.000000e+02 0.000000e+00
      endloop
   endfacet
   facet normal 0.000000e+00 0.000000e+00 -1.000000e+00
      outer loop
         vertex 0.000000e+00 2.000000e+02 0.000000e+00
         vertex 1.000000e+02 0.000000e+00 0.000000e+00
         vertex 0.000000e+00 0.000000e+00 0.000000e+00
      endloop
   endfacet
   facet normal 0.000000e+00 1.000000e+00 0.000000e+00
      outer loop
         vertex 1.000000e+02 2.000000e+02 1.500000e+02
         vertex 1.000000e+02 2.000000e+02 0.000000e+00
         vertex 0.000000e+00 2.000000e+02 1.500000e+02
      endloop
   endfacet
   facet normal 0.000000e+00 1.000000e+00 0.000000e+00
      outer loop
         vertex 0.000000e+00 2.000000e+02 1.500000e+02
         vertex 1.000000e+02 2.000000e+02 0.000000e+00
         vertex 0.000000e+00 2.000000e+02 0.000000e+00
      endloop
   endfacet
   facet normal -0.000000e+00 -0.000000e+00 -1.000000e+00
      outer loop
         vertex 1.000000e+02 1.900000e+02 1.400000e+02
         vertex 1.000000e+02 1.000000e+01 1.400000e+02
         vertex 0.000000e+00 1.900000e+02 1.400000e+02
      endloop
   endfacet
   facet normal 0.000000e+00 0.000000e+00 -1.000000e+00
      outer loop
         vertex 0.000000e+00 1.900000e+02 1.400000e+02
         vertex 1.000000e+02 1.000000e+01 1.400000e+02
         vertex 0.000000e+00 1.000000e+01 1.400000e+02
      endloop
   endfacet
   facet normal 0.000000e+00 1.000000e+00 0.000000e+00
      outer loop
         vertex 1.000000e+02 1.000000e+01 1.400000e+02
         vertex 1.000000e+02 1.000000e+01 1.000001e+01
         vertex 0.000000e+00 1.000000e+01 1.400000e+02
      endloop
   endfacet
   facet normal 0.000000e+00 1.000000e+00 0.000000e+00
      outer loop
         vertex 0.000000e+00 1.000000e+01 1.400000e+02
         vertex 1.000000e+02 1.000000e+01 1.000001e+01
         vertex 0.000000e+00 1.000000e+01 1.000001e+01
      endloop
   endfacet
   facet normal 0.000000e+00 -0.000000e+00 1.000000e+00
      outer loop
         vertex 1.000000e+02 1.000000e+01 1.000001e+01
         vertex 1.000000e+02 1.900000e+02 1.000001e+01
         vertex 0.000000e+00 1.000000e+01 1.000001e+01
      endloop
   endfacet
   facet normal 0.000000e+00 0.000000e+00 1.000000e+00
      outer loop
         vertex 0.000000e+00 1.000000e+01 1.000001e+01
         vertex 1.000000e+02 1.900000e+02 1.000001e+01
         vertex 0.000000e+00 1.900000e+02 1.000001e+01
      endloop
   endfacet
   facet normal 0.000000e+00 -1.000000e+00 0.000000e+00
      outer loop
         vertex 1.000000e+02 1.900000e+02 1.000001e+01
         vertex 1.000000e+02 1.900000e+02 1.400000e+02
         vertex 0.000000e+00 1.900000e+02 1.000001e+01
      endloop
   endfacet
   facet normal 0.000000e+00 -1.000000e+00 0.000000e+00
      outer loop
         vertex 0.000000e+00 1.900000e+02 1.000001e+01
         vertex 1.000000e+02 1.900000e+02 1.400000e+02
         vertex 0.000000e+00 1.900000e+02 1.400000e+02
      endloop
   endfacet
endsolid